<svg xmlns="http://www.w3.org/2000/svg" width="1024" height="1024" viewBox="0 0 256 256" fill="none" stroke-linecap="round" stroke-linejoin="round"><g transform="translate(-3.1905 -0.6772) scale(1.00529)"><g transform="translate(5 6)"><path d="M71 166 L185 166 L216 211 L40 211Z" fill="#2172BC" stroke="#2172BC" stroke-width="8"/><path d="M128 187 L128 207" fill="none" stroke="#2172BC" stroke-width="8"/><rect x="67" y="155" width="27" height="32" rx="7" fill="#2172BC" stroke="#2172BC" stroke-width="8"/><rect x="162" y="155" width="27" height="32" rx="7" fill="#2172BC" stroke="#2172BC" stroke-width="8"/><rect x="62" y="39" width="132" height="135" rx="23" fill="#2172BC" stroke="#2172BC" stroke-width="8"/><path d="M174 40 Q194 43 194 62 L194 150 Q194 174 172 174 L169 174 L169 40Z" fill="#2172BC" stroke="none" stroke-width="8"/><rect x="75" y="62" width="106" height="63" rx="10" fill="#2172BC" stroke="#2172BC" stroke-width="7"/><path d="M128 64 L128 123" fill="none" stroke="#2172BC" stroke-width="7"/><rect x="76" y="141" width="25" height="14" rx="5" fill="#2172BC" stroke="#2172BC" stroke-width="6"/><rect x="155" y="141" width="25" height="14" rx="5" fill="#2172BC" stroke="#2172BC" stroke-width="6"/><path d="M115 149 L141 149" fill="none" stroke="#2172BC" stroke-width="7"/></g><path d="M71 166 L185 166 L216 211 L40 211Z" fill="#2172BC" stroke="#06283D" stroke-width="8"/><path d="M128 187 L128 207" fill="none" stroke="#FFFFFF" stroke-width="8"/><rect x="67" y="155" width="27" height="32" rx="7" fill="#06283D" stroke="#06283D" stroke-width="8"/><rect x="162" y="155" width="27" height="32" rx="7" fill="#06283D" stroke="#06283D" stroke-width="8"/><rect x="62" y="39" width="132" height="135" rx="23" fill="#0192E5" stroke="#06283D" stroke-width="8"/><path d="M174 40 Q194 43 194 62 L194 150 Q194 174 172 174 L169 174 L169 40Z" fill="#2172BC" stroke="none" stroke-width="8"/><rect x="75" y="62" width="106" height="63" rx="10" fill="#47B5FF" stroke="#06283D" stroke-width="7"/><path d="M128 64 L128 123" fill="none" stroke="#06283D" stroke-width="7"/><rect x="76" y="141" width="25" height="14" rx="5" fill="#FFFFFF" stroke="#06283D" stroke-width="6"/><rect x="155" y="141" width="25" height="14" rx="5" fill="#FFFFFF" stroke="#06283D" stroke-width="6"/><path d="M115 149 L141 149" fill="none" stroke="#06283D" stroke-width="7"/></g></svg>